<svg width="513" height="128.882" viewBox="0 0 406 102" class="looka-1j8o68f"><path xmlns="http://www.w3.org/2000/svg" fill="#FFF" d="M20.456 26.508s-.44.5-.88.94-.942.881-.942.881c-.231.204-.44.31-.462.238l-.02-.068-.001-.004a93 93 0 0 1-.728-2.786c-.074-.3.112-.485.411-.412l2.257.578.67.19c.037.013-.1.211-.305.443m9.107 7.754a.467.467 0 0 0 .728-.056l1.91-2.913a.51.51 0 0 0-.225-.726s-4.237-2.017-6.622-2.934l-.1-.037c-.108-.04-.341.115-.519.346-.177.23-.486 1.006-.27 1.224zm-2.958 2.994-5.099-5.1a.63.63 0 0 0-.829-.039l-.585.47c-.244.188-.412.429-.372.535l.037.098c.92 2.39 2.936 6.628 2.936 6.628a.507.507 0 0 0 .726.223l3.133-2.084a.472.472 0 0 0 .053-.731m15.617 9.664 5.097 5.097a.436.436 0 0 0 .702-.074l3.219-6.267a70 70 0 0 0-.524-.589l-.53-.575-.605-.638a25 25 0 0 1-2.77-3.514 24 24 0 0 1-.43-.689.436.436 0 0 0-.524.243l-3.708 6.152a.69.69 0 0 0 .073.854m-6.74-.786-5.098-5.1a.66.66 0 0 0-.843-.056l-4.126 2.795a.56.56 0 0 0-.194.767l3.437 5.444c.17.257.54.365.822.239l5.939-3.373a.452.452 0 0 0 .064-.716m2.958-2.994a.445.445 0 0 0 .71-.068l3.2-5.719a.685.685 0 0 0-.24-.821l-5.446-3.439a.555.555 0 0 0-.766.194l-2.615 3.91a.67.67 0 0 0 .06.846zm17.73 24.467-3.158 2.057.76.44c.512.282 1.021.578 1.538.858.516.283 1.032.567 1.554.839.517.283 1.043.545 1.567.819.832.42 1.668.835 2.508 1.23.5.055 1.093.095 1.476.12q.064-.363.186-.716l-5.584-5.585a.67.67 0 0 0-.847-.062m32.812-43.39v54.55c0 9.508-7.708 17.216-17.216 17.216h-54.55C7.706 95.983 0 88.275 0 78.768V24.216C0 14.708 7.708 7 17.216 7h54.55c9.51 0 17.217 7.708 17.217 17.216m-15.046 51.18-1.093-1.091a13 13 0 0 0 .518-1.34c.5-1.53.764-3.033.923-4.517.155-1.484.195-2.949.146-4.398a39 39 0 0 0-.13-2.164 45 45 0 0 0-.246-2.14 44 44 0 0 0-.352-2.115 62 62 0 0 0-.211-1.05c-.075-.35-.158-.695-.24-1.04a45 45 0 0 0-1.183-4.115 48.5 48.5 0 0 0-3.468-7.89 45.4 45.4 0 0 0-4.984-7.292 41 41 0 0 0-2.296-2.514l-.416-.414-.18-.175-.152-.143a49 49 0 0 0-2.429-2.159 53 53 0 0 0-4.787-3.54 98 98 0 0 1-1.144-.765 10 10 0 0 1-1.115-.863 4.1 4.1 0 0 1-.971-1.303c-.263-.558-.406-1.267-.354-2.096l-.355-.522a3.3 3.3 0 0 0-.73.023 5 5 0 0 0-.357.063q-.173.045-.348.1c-.471.145-.907.382-1.335.67-.839.585-1.533 1.434-2.03 2.374-.498.942-.805 1.966-.975 2.971a13.4 13.4 0 0 0-.145 2.947q.05.819.175 1.597a92 92 0 0 0-7.618-4.575 82 82 0 0 0-9.2-4.22 69 69 0 0 0-5.035-1.71l-.012-.003c-1.695-.49-3.542-.986-5.573-1.3-.844-.13-1.793.222-2.495.924s-1.055 1.65-.924 2.495c.314 2.032.81 3.879 1.3 5.573l.003.013a69 69 0 0 0 1.713 5.04 82 82 0 0 0 4.219 9.196 92 92 0 0 0 4.573 7.616 16 16 0 0 0-1.597-.174 13.4 13.4 0 0 0-2.947.146c-1.005.17-2.029.476-2.971.975-.94.497-1.789 1.19-2.374 2.031-.289.426-.525.863-.67 1.333q-.057.175-.1.348a5 5 0 0 0-.063.358 3.3 3.3 0 0 0-.023.73l.522.354c.828-.051 1.538.092 2.096.354a4.1 4.1 0 0 1 1.303.97c.335.361.603.737.863 1.116.258.38.51.756.765 1.145a53 53 0 0 0 3.54 4.786 50 50 0 0 0 2.159 2.43l.143.15.175.181.414.416q.405.403.822.793a43 43 0 0 0 1.692 1.503c2.3 1.93 4.748 3.581 7.292 4.983s5.182 2.554 7.89 3.468a45 45 0 0 0 4.112 1.184c.347.082.693.165 1.043.24q.523.109 1.05.212c.7.139 1.407.248 2.116.352a40 40 0 0 0 4.302.374c1.448.05 2.915.009 4.399-.146 1.483-.158 2.986-.423 4.515-.921a14 14 0 0 0 1.34-.518l1.093 1.092a4.535 4.535 0 0 0 6.412-6.412M44.362 55.01l-5.1-5.099a.685.685 0 0 0-.852-.068l-6.37 3.884c-.215.107-.304.323-.242.525q.35.211.689.43A25 25 0 0 1 36 57.453l.637.605.576.53q.288.26.582.519l6.494-3.39a.44.44 0 0 0 .072-.706m20.386 11.294c-.274-.525-.538-1.048-.82-1.567-.273-.522-.557-1.038-.84-1.554-.278-.516-.575-1.025-.86-1.537l-.431-.75-1.882 2.93a.676.676 0 0 0 .064.847l5.706 5.706q.204-.053.415-.09v-.019s-.05-.787-.124-1.462a94 94 0 0 0-1.228-2.504m-11.51-2.416-5.098-5.1a.694.694 0 0 0-.855-.07l-5.797 3.392a81 81 0 0 0 2.1 1.54 110 110 0 0 0 5.072 3.387l4.51-2.438c.256-.173.287-.49.069-.711m-2.14-8.09 5.097 5.097a.44.44 0 0 0 .706-.071l2.274-4.272a110 110 0 0 0-3.397-5.092 86 86 0 0 0-1.535-2.09l-3.22 5.571a.694.694 0 0 0 .075.856"/><path xmlns="http://www.w3.org/2000/svg" fill="#fff" d="M109 0h3v102h-3z"/><path d="m139.659 38.951 6.537-.041q4.415 0 4.415 4.164v10.952q-5.372 1.707-11.286 1.707-2.998 0-5.309-.999t-3.873-2.873-2.353-4.602-.79-6.184q0-3.79 1.103-6.6t2.956-4.685 4.269-2.81 5.038-.938q5.414 0 10.161 2.998-.041.667-.312 1.354t-.666 1.332-.916 1.166-1.062.896q-3.457-2.249-6.996-2.249-6.788 0-6.788 9.495 0 9.452 6.954 9.452.958 0 1.853-.083t1.77-.25v-2.79q0-.958.021-1.665t.062-1.208h-2.082q-1.79 0-2.477-.687t-.688-2.145q0-1.25.459-2.707m38.353-12.284v17.948q0 5.33-2.915 8.224t-8.329 2.894-8.35-2.894-2.935-8.224V26.667l.291-.292h2.457q3.956 0 3.956 4.248v14.075q0 2.915 1.041 4.331t3.54 1.416 3.54-1.416 1.04-4.33V26.666q1.292-.25 3.332-.25 1.999 0 3.332.25m12.2 22.487q-1.123 0-1.665-.042l-1.79 6.038q-1 .25-2.79.25-2 0-3.249-.458l-.208-.333 9.162-27.942q1.624-.25 3.789-.25 2.457 0 3.914.291l8.995 27.984q-1.457.792-3.29.792-2.165 0-3.04-.75t-1.499-2.873l-.79-2.749q-.542.042-1.625.042zm-.124-5.247 1.666-.042h3.04q.208 0 .728.021t.77.02l-.707-2.581q-1-3.498-2.29-8.578h-.25q-.334 1.79-2 7.953zm40.185-8.454q0 1.375-.416 2.603t-1.104 2.207-1.624 1.707-1.936 1.104q2.165.791 3.206 3.831l1.25 3.54q.708 2.082 2.082 3.081-.625.833-1.874 1.395t-2.749.563-2.332-.854-1.54-2.978l-1.5-4.372q-.458-1.25-1.228-1.916t-2.311-.666h-1.707v10.41q-1.333.25-3.332.25t-3.29-.25V26.876l.292-.292q3.623-.083 6.1-.124t3.894-.042q2.29 0 4.164.562t3.186 1.687 2.04 2.831.73 3.956m-13.784-4.039v8.162q1.873 0 3.206-.062t2.145-.5 1.228-1.229.417-2.29q0-4.04-3.915-4.04h-1.728zm37.395 21.863q-1.333 1.082-3.498 1.582t-4.79.5q-1.29 0-3.726-.042t-6.1-.125l-.292-.291V26.875l.291-.292q2.415-.083 5.018-.124t5.476-.042q3.54 0 5.913 1.124t3.79 3.082 1.999 4.601.583 5.685q0 4.164-.958 7.204t-3.706 5.164m-7.663-3.124q5.497 0 5.497-9.244 0-9.287-5.497-9.287h-2.352l-1.77-.041v18.614q.75-.042 1.77-.042zm36.98-17.99.04 3.082V55.11q-1.415.25-3.372.25t-3.29-.25V32.164l-2.665.041h-4.29q-.25-1.207-.25-2.769t.25-2.77h20.614q.333 1.083.333 2.624t-.833 2.228-2.665.687h-1.208l-2.623-.041zm16.99 14.534-.042 2.998v.042q1.915-.083 3.081-.083h9.662q0 1.54-.125 2.373-.5 3.207-4.248 3.207h-11.077q-1.79 0-2.81-1.041t-1.021-2.832V26.958l.291-.291h17.949q.25 1.207.25 2.623t-.584 2.957H300.15l.042 2.998v2.915q1.082-.041 2.831-.041h6.372q.374 1.166.374 2.665t-.374 2.748h-9.203zm31.773-8.703v-.5q0-6.163-4.58-6.163-2.624 0-3.79 2.394t-1.166 7.059q0 4.622 1.457 6.87t4.248 2.25q1.457 0 3.227-.688t3.852-2.186q1.041.708 1.937 1.936t1.103 2.353q-.958.916-2.228 1.728t-2.748 1.396-3.082.936-3.227.354q-3.207 0-5.414-1.228t-3.56-3.269-1.957-4.706-.604-5.538q0-3.748.937-6.559t2.54-4.685 3.769-2.81T327.3 26q2.499 0 4.54.667t3.476 1.832 2.207 2.748.77 3.415q0 3.706-3.789 3.706-1.124 0-2.54-.374m26.11-.292-.042-3.081v-7.954q1.291-.25 3.353-.25t3.31.25v28.442q-1.332.25-3.331.25t-3.332-.25V46.28l.042-3.082-2.082.042h-4.83l-2.083-.042.042 3.082v8.828q-1.291.25-3.332.25t-3.331-.25V26.667q1.29-.25 3.331-.25t3.332.25v7.954l-.042 3.081 2.082-.042h4.83zm18.115 2.374-.042-2.874v-3.498q1.166-.25 2.748-.25t2.749.25v3.498l-.042 2.874 2.832-.042h3.29q.291 1.333.291 2.686t-.291 2.52h-3.29l-2.832-.042.042 2.832v3.54q-1.166.249-2.749.249t-2.748-.25v-3.54l.042-2.831-2.832.041h-3.29q-.291-1.124-.291-2.581t.291-2.624h3.29zM133.398 70.89h-1.056c-.058-1.29-1.127-1.696-2.067-1.696-.709 0-1.905.197-1.905 1.463 0 .708.5.94.987 1.057l2.38.545c1.08.256 1.894.906 1.894 2.23 0 1.974-1.835 2.52-3.263 2.52-1.545 0-2.149-.465-2.52-.801-.709-.64-.848-1.336-.848-2.114h1.057c0 1.51 1.23 1.951 2.299 1.951.813 0 2.183-.209 2.183-1.405 0-.871-.406-1.15-1.777-1.475l-1.707-.395c-.545-.127-1.776-.51-1.776-1.962 0-1.3.847-2.578 2.868-2.578 2.915 0 3.205 1.742 3.251 2.66m9.866 4.9v.998h-6.154v-8.337h6.073v.998h-4.947v2.555h4.564v.999h-4.564v2.787zm11.364.998h-1.092v-4.923c0-.244.023-1.3.023-2.079h-.023l-2.345 7.002h-1.115l-2.346-6.99h-.023c0 .766.023 1.823.023 2.067v4.923h-1.091v-8.337h1.614l2.38 7.048h.023l2.37-7.048h1.602zm4.895-7.374v2.892h2.242c1.01 0 1.695-.372 1.695-1.498 0-1.057-.72-1.394-1.649-1.394zm0 3.856v3.518h-1.126v-8.337h3.75c1.545 0 2.474.998 2.474 2.345 0 1.162-.662 2.474-2.473 2.474zm9.704-.058v3.576H168.1v-8.337h3.855c1.37 0 2.74.476 2.74 2.24 0 1.232-.626 1.685-1.16 1.998.476.198.952.407.998 1.568l.07 1.51c.012.464.07.638.418.835v.186h-1.382c-.162-.51-.197-1.776-.197-2.09 0-.685-.14-1.486-1.487-1.486zm0-3.798v2.834h2.612c.825 0 1.696-.21 1.696-1.44 0-1.289-.94-1.394-1.498-1.394zm15.323 6.376v.998h-6.154v-8.337h6.073v.998h-4.947v2.555h4.564v.999h-4.564v2.787zm16.527.998h-1.092v-4.923c0-.244.023-1.3.023-2.079h-.023l-2.346 7.002h-1.114l-2.346-6.99h-.023c0 .766.023 1.823.023 2.067v4.923h-1.092v-8.337h1.614l2.38 7.048h.024l2.37-7.048h1.602zm8.31-2.427h-3.345l-.871 2.427h-1.161l3.135-8.337h1.277l3.02 8.337h-1.231zm-2.997-.998h2.59l-1.231-3.67h-.023zm9.32-4.912v8.337h-1.126v-8.337zm9.947 2.438h-1.056c-.059-1.289-1.127-1.695-2.067-1.695-.709 0-1.905.197-1.905 1.463 0 .708.5.94.987 1.057l2.38.545c1.08.256 1.893.906 1.893 2.23 0 1.974-1.834 2.52-3.263 2.52-1.544 0-2.148-.465-2.52-.801-.708-.64-.847-1.336-.847-2.114h1.057c0 1.51 1.23 1.951 2.299 1.951.813 0 2.183-.209 2.183-1.405 0-.871-.406-1.15-1.777-1.475l-1.707-.395c-.545-.127-1.776-.51-1.776-1.962 0-1.3.847-2.578 2.868-2.578 2.914 0 3.205 1.742 3.251 2.66m15.702.069h-1.091c-.314-1.463-1.533-1.73-2.334-1.73-1.51 0-2.73 1.114-2.73 3.31 0 1.962.698 3.471 2.765 3.471.731 0 1.997-.348 2.38-2.287h1.092c-.465 3.146-3.02 3.286-3.647 3.286-1.892 0-3.75-1.231-3.75-4.436 0-2.566 1.463-4.343 3.89-4.343 2.148 0 3.263 1.335 3.425 2.729m9.912 1.66c0-1.962-1.091-3.39-2.903-3.39s-2.903 1.428-2.903 3.39 1.092 3.391 2.903 3.391 2.903-1.428 2.903-3.39m1.162 0c0 1.8-.953 4.389-4.065 4.389s-4.064-2.59-4.064-4.39.952-4.389 4.064-4.389 4.065 2.59 4.065 4.39m11.224 4.168h-1.092v-4.923c0-.244.024-1.3.024-2.079h-.024l-2.345 7.002h-1.115l-2.346-6.99h-.023c0 .766.023 1.823.023 2.067v4.923h-1.091v-8.337h1.614l2.38 7.048h.024l2.369-7.048h1.602zm11.824-1.23 2.357-7.107h1.266l-3.043 8.337h-1.196l-3.042-8.337h1.254l2.38 7.106zm13.21-2.939c0-1.962-1.092-3.39-2.903-3.39s-2.904 1.428-2.904 3.39 1.092 3.391 2.904 3.391 2.903-1.428 2.903-3.39m1.16 0c0 1.8-.951 4.389-4.063 4.389s-4.065-2.59-4.065-4.39.952-4.389 4.065-4.389 4.064 2.59 4.064 4.39m10.214-1.661h-1.092c-.313-1.463-1.532-1.73-2.334-1.73-1.51 0-2.729 1.114-2.729 3.31 0 1.962.697 3.471 2.764 3.471.732 0 1.997-.348 2.38-2.287h1.092c-.464 3.146-3.019 3.286-3.646 3.286-1.893 0-3.75-1.231-3.75-4.436 0-2.566 1.462-4.343 3.89-4.343 2.148 0 3.262 1.335 3.425 2.729m9.645 4.83v1h-6.154V68.45h6.073v.998h-4.947v2.555h4.564v.999h-4.564v2.787zm-3.286-9.231-.767 1.08h-.917l1.15-1.638h1.08l1.15 1.638h-.93z" fill="#fff"/></svg>